<svg width="17" height="17" viewBox="0 0 17 17" fill="none" xmlns="http://www.w3.org/2000/svg">
<path fill-rule="evenodd" clip-rule="evenodd" d="M13.5598 0C13.7742 1.06469 14.5538 1.89637 15.5519 2.125C14.5538 2.35363 13.7742 3.18531 13.5598 4.25C13.3455 3.18531 12.5658 2.35363 11.5678 2.125C12.5658 1.89637 13.3455 1.06469 13.5598 0ZM0.611328 8.5C0.611328 7.6198 1.32487 6.90625 2.20508 6.90625H14.9542C15.8344 6.90625 16.5479 7.6198 16.5479 8.5C16.5479 9.3802 15.8344 10.0938 14.9542 10.0938H2.20508C1.32487 10.0938 0.611328 9.3802 0.611328 8.5ZM2.20508 1.0625C1.32487 1.0625 0.611328 1.77605 0.611328 2.65625C0.611328 3.53645 1.32487 4.25 2.20508 4.25H7.98192C8.86213 4.25 9.57567 3.53645 9.57567 2.65625C9.57567 1.77605 8.86213 1.0625 7.98192 1.0625H2.20508ZM0.611328 14.3438C0.611328 13.4635 1.32487 12.75 2.20508 12.75H3.00173C3.88194 12.75 4.59548 13.4635 4.59548 14.3438C4.59548 15.224 3.88194 15.9375 3.00173 15.9375H2.20508C1.32487 15.9375 0.611328 15.224 0.611328 14.3438ZM8.18131 12.75C7.30111 12.75 6.58756 13.4635 6.58756 14.3438C6.58756 15.224 7.30111 15.9375 8.18131 15.9375H12.9621C13.8423 15.9375 14.5559 15.224 14.5559 14.3438C14.5559 13.4635 13.8423 12.75 12.9621 12.75H8.18131Z" fill="#3A7326"/>
</svg>
